o mush_a
v -0.0193545 0.0626575 0
v -0.0379653 0.057012 0
v -0.0551171 0.0478442 0
v -0.0701507 0.0355064 0
v -0.0824885 0.0271107 0
v -0.0916563 0.0169642 0
v -0.0973019 0.0068316 0
v -0.0992081 0 0
v -0.0174999 0.002509 0
v -0.0216118 -0.0861146 0
v -0.0189827 0.0626575 -0.0037759
v -0.0372358 0.057012 -0.0074067
v -0.054058 0.0478442 -0.0107528
v -0.0688028 0.0355064 -0.0136857
v -0.0809035 0.0271107 -0.0160927
v -0.0898952 0.0169642 -0.0178813
v -0.0954322 0.0068316 -0.0189827
v -0.0973019 0 -0.0193545
v -0.0171636 0.002509 -0.0034141
v -0.0211965 -0.0861146 -0.0042163
v -0.0178813 0.0626575 -0.0074067
v -0.0350754 0.057012 -0.0145287
v -0.0509215 0.0478442 -0.0210924
v -0.0648108 0.0355064 -0.0268455
v -0.0762095 0.0271107 -0.031567
v -0.0846794 0.0169642 -0.0350754
v -0.0898952 0.0068316 -0.0372358
v -0.0916563 0 -0.0379653
v -0.0161678 0.002509 -0.0066969
v -0.0199667 -0.0861146 -0.0082705
v -0.0160927 0.0626575 -0.0107528
v -0.031567 0.057012 -0.0210924
v -0.0458282 0.0478442 -0.0306214
v -0.0583282 0.0355064 -0.0389737
v -0.0685867 0.0271107 -0.0458282
v -0.0762095 0.0169642 -0.0509216
v -0.0809035 0.0068316 -0.054058
v -0.0824885 0 -0.0551171
v -0.0145506 0.002509 -0.0097224
v -0.0179695 -0.0861146 -0.0120069
v -0.0136857 0.0626575 -0.0136858
v -0.0268455 0.057012 -0.0268455
v -0.0389736 0.0478442 -0.0389737
v -0.049604 0.0355064 -0.0496041
v -0.0583282 0.0271107 -0.0583282
v -0.0648108 0.0169642 -0.0648108
v -0.0688028 0.0068316 -0.0688028
v -0.0701507 0 -0.0701508
v -0.0123743 0.002509 -0.0123743
v -0.0152818 -0.0861146 -0.0152819
v -0.0107528 0.0626575 -0.0160927
v -0.0210924 0.057012 -0.031567
v -0.0306214 0.0478442 -0.0458282
v -0.0389736 0.0355064 -0.0583282
v -0.0458282 0.0271107 -0.0685867
v -0.0509215 0.0169642 -0.0762095
v -0.054058 0.0068316 -0.0809036
v -0.0551171 0 -0.0824886
v -0.0097224 0.002509 -0.0145507
v -0.0120068 -0.0861146 -0.0179696
v -0.0074066 0.0626575 -0.0178813
v -0.0145287 0.057012 -0.0350754
v -0.0210924 0.0478442 -0.0509216
v -0.0268455 0.0355064 -0.0648108
v -0.031567 0.0271107 -0.0762095
v -0.0350753 0.0169642 -0.0846794
v -0.0372358 0.0068316 -0.0898952
v -0.0379653 0 -0.0916564
v -0.0066969 0.002509 -0.0161678
v -0.0082704 -0.0861146 -0.0199667
v -0.0037759 0.0626575 -0.0189827
v -0.0074066 0.057012 -0.0372358
v -0.0107528 0.0478442 -0.054058
v -0.0136857 0.0355064 -0.0688028
v -0.0160927 0.0271107 -0.0809036
v -0.0178812 0.0169642 -0.0898952
v -0.0189826 0.0068316 -0.0954322
v -0.0193545 0 -0.0973019
v -0.003414 0.002509 -0.0171637
v -0.0042162 -0.0861146 -0.0211965
v 0 0.0626575 -0.0193546
v 0 0.057012 -0.0379653
v 0 0.0478442 -0.0551171
v 0 0.0355064 -0.0701508
v 0 0.0271107 -0.0824885
v 0 0.0169642 -0.0916564
v 0 0.0068316 -0.0973019
v 0 0 -0.0992081
v 0 0.002509 -0.0174999
v 0 -0.0861146 -0.0216118
v 0.0037759 0.0626575 -0.0189827
v 0.0074067 0.057012 -0.0372358
v 0.0107528 0.0478442 -0.054058
v 0.0136858 0.0355064 -0.0688028
v 0.0160928 0.0271107 -0.0809036
v 0.0178813 0.0169642 -0.0898952
v 0.0189827 0.0068316 -0.0954322
v 0.0193546 0 -0.0973019
v 0.0034141 0.002509 -0.0171637
v 0.0042163 -0.0861146 -0.0211965
v 0.0074067 0.0626575 -0.0178813
v 0.0145287 0.057012 -0.0350754
v 0.0210924 0.0478442 -0.0509216
v 0.0268456 0.0355064 -0.0648108
v 0.031567 0.0271107 -0.0762095
v 0.0350754 0.0169642 -0.0846794
v 0.0372358 0.0068316 -0.0898952
v 0.0379653 0 -0.0916564
v 0.006697 0.002509 -0.0161678
v 0.0082705 -0.0861146 -0.0199667
v 0.0107529 0.0626575 -0.0160927
v 0.0210924 0.057012 -0.031567
v 0.0306214 0.0478442 -0.0458282
v 0.0389737 0.0355064 -0.0583282
v 0.0458282 0.0271107 -0.0685867
v 0.0509216 0.0169642 -0.0762095
v 0.054058 0.0068316 -0.0809035
v 0.0551171 0 -0.0824885
v 0.0097225 0.002509 -0.0145507
v 0.0120069 -0.0861146 -0.0179696
v 0.0136858 0.0626575 -0.0136857
v 0.0268456 0.057012 -0.0268455
v 0.0389737 0.0478442 -0.0389737
v 0.0496041 0.0355064 -0.0496041
v 0.0583282 0.0271107 -0.0583282
v 0.0648109 0.0169642 -0.0648108
v 0.0688028 0.0068316 -0.0688028
v 0.0701508 0 -0.0701507
v 0.0123743 0.002509 -0.0123743
v 0.0152819 -0.0861146 -0.0152819
v 0.0160928 0.0626575 -0.0107528
v 0.031567 0.057012 -0.0210924
v 0.0458282 0.0478442 -0.0306214
v 0.0583282 0.0355064 -0.0389737
v 0.0685867 0.0271107 -0.0458282
v 0.0762095 0.0169642 -0.0509216
v 0.0809036 0.0068316 -0.054058
v 0.0824886 0 -0.0551171
v 0.0145507 0.002509 -0.0097224
v 0.0179696 -0.0861146 -0.0120069
v 0.0178813 0.0626575 -0.0074067
v 0.0350754 0.057012 -0.0145287
v 0.0509216 0.0478442 -0.0210924
v 0.0648109 0.0355064 -0.0268455
v 0.0762095 0.0271107 -0.031567
v 0.0846795 0.0169642 -0.0350754
v 0.0898952 0.0068316 -0.0372358
v 0.0916564 0 -0.0379653
v 0.0161678 0.002509 -0.0066969
v 0.0199667 -0.0861146 -0.0082705
v 0.0189827 0.0626575 -0.0037759
v 0.0372359 0.057012 -0.0074067
v 0.0540581 0.0478442 -0.0107528
v 0.0688028 0.0355064 -0.0136857
v 0.0809036 0.0271107 -0.0160927
v 0.0898952 0.0169642 -0.0178813
v 0.0954323 0.0068316 -0.0189826
v 0.0973019 0 -0.0193545
v 0.0171637 0.002509 -0.0034141
v 0.0211965 -0.0861146 -0.0042163
v 0.0193546 0.0626575 0
v 0.0379653 0.057012 0
v 0.0551171 0.0478442 0
v 0.0701508 0.0355064 0
v 0.0824885 0.0271107 0
v 0.0916564 0.0169642 0
v 0.0973019 0.0068316 0
v 0.0992082 0 0
v 0.0174999 0.002509 0
v 0.0216118 -0.0861146 0
v 0.0189827 0.0626575 0.0037759
v 0.0372358 0.057012 0.0074067
v 0.0540581 0.0478442 0.0107528
v 0.0688028 0.0355064 0.0136857
v 0.0809035 0.0271107 0.0160927
v 0.0898952 0.0169642 0.0178813
v 0.0954322 0.0068316 0.0189827
v 0.0973019 0 0.0193546
v 0.0171637 0.002509 0.0034141
v 0.0211965 -0.0861146 0.0042162
v 0.0178813 0.0626575 0.0074067
v 0.0350754 0.057012 0.0145287
v 0.0509216 0.0478442 0.0210924
v 0.0648109 0.0355064 0.0268455
v 0.0762095 0.0271107 0.031567
v 0.0846795 0.0169642 0.0350754
v 0.0898952 0.0068316 0.0372358
v 0.0916564 0 0.0379653
v 0.0161678 0.002509 0.0066969
v 0.0199667 -0.0861146 0.0082705
v 0.0160928 0.0626575 0.0107528
v 0.031567 0.057012 0.0210924
v 0.0458282 0.0478442 0.0306214
v 0.0583282 0.0355064 0.0389737
v 0.0685867 0.0271107 0.0458282
v 0.0762095 0.0169642 0.0509215
v 0.0809035 0.0068316 0.054058
v 0.0824886 0 0.0551171
v 0.0145507 0.002509 0.0097224
v 0.0179696 -0.0861146 0.0120068
v 0.0136858 0.0626575 0.0136857
v 0.0268456 0.057012 0.0268455
v 0.0389737 0.0478442 0.0389737
v 0.0496041 0.0355064 0.0496041
v 0.0583282 0.0271107 0.0583282
v 0.0648109 0.0169642 0.0648108
v 0.0688028 0.0068316 0.0688028
v 0.0701508 0 0.0701507
v 0.0123743 0.002509 0.0123743
v 0.0152819 -0.0861146 0.0152818
v 0.0107528 0.0626575 0.0160927
v 0.0210924 0.057012 0.031567
v 0.0306214 0.0478442 0.0458282
v 0.0389737 0.0355064 0.0583282
v 0.0458282 0.0271107 0.0685867
v 0.0509216 0.0169642 0.0762095
v 0.054058 0.0068316 0.0809035
v 0.0551171 0 0.0824885
v 0.0097224 0.002509 0.0145506
v 0.0120069 -0.0861146 0.0179695
v 0.0074067 0.0626575 0.0178813
v 0.0145287 0.057012 0.0350754
v 0.0210924 0.0478442 0.0509215
v 0.0268455 0.0355064 0.0648108
v 0.031567 0.0271107 0.0762094
v 0.0350754 0.0169642 0.0846794
v 0.0372358 0.0068316 0.0898952
v 0.0379653 0 0.0916563
v 0.0066969 0.002509 0.0161678
v 0.0082705 -0.0861146 0.0199667
v 0.0037759 0.0626575 0.0189827
v 0.0074067 0.057012 0.0372358
v 0.0107528 0.0478442 0.054058
v 0.0136857 0.0355064 0.0688028
v 0.0160927 0.0271107 0.0809035
v 0.0178813 0.0169642 0.0898952
v 0.0189827 0.0068316 0.0954322
v 0.0193546 0 0.0973019
v 0.0034141 0.002509 0.0171636
v 0.0042163 -0.0861146 0.0211965
v 0 0.0626575 0.0193546
v 0 0.057012 0.0379653
v 0 0.0478442 0.0551171
v 0 0.0355064 0.0701507
v 0 0.0271107 0.0824885
v 0 0.0169642 0.0916563
v 0 0.0068316 0.0973018
v 0 0 0.0992081
v 0 0.002509 0.0174999
v 0 -0.0861146 0.0216118
v -0.0037759 0.0626575 0.0189827
v -0.0074066 0.057012 0.0372358
v -0.0107528 0.0478442 0.054058
v -0.0136857 0.0355064 0.0688028
v -0.0160927 0.0271107 0.0809035
v -0.0178812 0.0169642 0.0898952
v -0.0189826 0.0068316 0.0954322
v -0.0193545 0 0.0973018
v -0.003414 0.002509 0.0171636
v -0.0042162 -0.0861146 0.0211965
v -0.0074066 0.0626575 0.0178813
v -0.0145287 0.057012 0.0350754
v -0.0210924 0.0478442 0.0509215
v -0.0268455 0.0355064 0.0648108
v -0.031567 0.0271107 0.0762094
v -0.0350753 0.0169642 0.0846794
v -0.0372358 0.0068316 0.0898951
v -0.0379653 0 0.0916563
v -0.0066969 0.002509 0.0161678
v -0.0082704 -0.0861146 0.0199667
v -0.0107528 0.0626575 0.0160927
v -0.0210924 0.057012 0.031567
v -0.0306214 0.0478442 0.0458282
v -0.0389736 0.0355064 0.0583282
v -0.0458281 0.0271107 0.0685867
v -0.0509215 0.0169642 0.0762095
v -0.054058 0.0068316 0.0809035
v -0.055117 0 0.0824885
v -0.0097224 0.002509 0.0145506
v -0.0120068 -0.0861146 0.0179695
v -0.0136857 0.0626575 0.0136857
v -0.0268455 0.057012 0.0268455
v -0.0389736 0.0478442 0.0389736
v -0.049604 0.0355064 0.049604
v -0.0583282 0.0271107 0.0583282
v -0.0648108 0.0169642 0.0648108
v -0.0688028 0.0068316 0.0688028
v -0.0701507 0 0.0701507
v -0.0123743 0.002509 0.0123743
v -0.0152818 -0.0861146 0.0152818
v -0.0160927 0.0626575 0.0107528
v -0.031567 0.057012 0.0210924
v -0.0458281 0.0478442 0.0306214
v -0.0583282 0.0355064 0.0389736
v -0.0685867 0.0271107 0.0458281
v -0.0762094 0.0169642 0.0509215
v -0.0809035 0.0068316 0.054058
v -0.0824885 0 0.055117
v -0.0145506 0.002509 0.0097224
v -0.0179695 -0.0861146 0.0120068
v 0 0.0645638 0
v -0.0178812 0.0626575 0.0074067
v -0.0350753 0.057012 0.0145287
v -0.0509215 0.0478442 0.0210924
v -0.0648108 0.0355064 0.0268455
v -0.0762094 0.0271107 0.031567
v -0.0846794 0.0169642 0.0350754
v -0.0898951 0.0068316 0.0372358
v -0.0916563 0 0.0379653
v -0.0161678 0.002509 0.0066969
v -0.0199667 -0.0861146 0.0082705
v -0.0189826 0.0626575 0.0037759
v -0.0372358 0.057012 0.0074067
v -0.054058 0.0478442 0.0107528
v -0.0688028 0.0355064 0.0136857
v -0.0809035 0.0271107 0.0160927
v -0.0898952 0.0169642 0.0178813
v -0.0954321 0.0068316 0.0189826
v -0.0973018 0 0.0193545
v -0.0171636 0.002509 0.003414
v -0.0211965 -0.0861146 0.0042162
vt 0 0
vt 0 0
vt 0 0
vt 0 0
vt 0.27247 0.279815
vt 0 0
vt 0 0
vt 0 0
vt 0 0
vt 0 0
vt 0 0
vt 0 0
vt 0 0
vt 0 0
vt 0 0
vt 0 0
vt 0 0
vt 0.709432 0.835922
vt 0 0
vt 0 0
vt 0 0
vt 0 0
vt 0 0
vt 0 0
vt 0 0
vt 0 0
vt 0 0
vt 0 0
vt 0 0
vt 0 0
vt 0 0
vt 0 0
vt 0 0
vt 0 0
vt 0 0
vt 0 0
vt 0 0
vt 0.128634 0.443407
vt 0 0
vt 0 0
vt 0 0
vt 0 0
vt 0 0
vt 0 0
vt 0.252438 0.485118
vt 0 0
vt 0 0
vt 0 0
vt 0 0
vt 0 0
vt 0 0
vt 0.416829 0.457623
vt 0 0
vt 0 0
vt 0 0
vt 0 0
vt 0 0
vt 0 0
vt 0 0
vt 0 0
vt 0 0
vt 0 0
vt 0 0
vt 0 0
vt 0 0
vt 0 0
vt 0 0
vt 0.783116 0.725645
vt 0 0
vt 0 0
vt 0 0
vt 0 0
vt 0 0
vt 0 0
vt 0 0
vt 0 0
vt 0 0
vt 0 0
vt 0.216235 0.977875
vt 0 0
vt 0 0
vt 0 0
vt 0 0
vt 0 0
vt 0.383301 0.645558
vt 0 0
vt 0 0
vt 0 0
vt 0 0
vt 0.217626 0.772899
vt 0 0
vt 0 0
vt 0 0
vt 0 0
vt 0 0
vt 0 0
vt 0 0
vt 0 0
vt 0 0
vt 0 0
vt 0 0
vt 0 0
vt 0 0
vt 0 0
vt 0 0
vt 0 0
vt 0 0
vt 0.890266 0.715092
vt 0 0
vt 0 0
vt 0 0
vt 0 0
vt 0 0
vt 0 0
vt 0 0
vt 0 0
vt 0 0
vt 0 0
vt 0 0
vt 0 0
vt 0 0
vt 0 0
vt 0.559134 0.562861
vt 0 0
vt 0 0
vt 0 0
vt 0 0
vt 0.938673 0.740967
vt 0 0
vt 0 0
vt 0 0
vt 0 0
vt 0 0
vt 0 0
vt 0 0
vt 0 0
vt 0 0
vt 0 0
vt 0 0
vt 0 0
vt 0 0
vt 0 0
vt 0 0
vt 0 0
vt 0.683809 0.616134
vt 0 0
vt 0 0
vt 0 0
vt 0 0
vt 0 0
vt 0 0
vt 0 0
vt 0 0
vt 0 0
vt 0 0
vt 0 0
vt 0 0
vt 0 0
vt 0.152908 0.976724
vt 0 0
vt 0 0
vt 0 0
vt 0 0
vt 0 0
vt 0 0
vt 0 0
vt 0 0
vt 0.989427 0.835922
vt 0 0
vt 0 0
vt 0 0
vt 0 0
vt 0 0
vt 0 0
vt 0 0
vt 0 0
vt 0 0
vt 0 0
vt 0 0
vt 0 0
vt 0 0
vt 0 0
vt 0 0
vt 0 0
vt 0 0
vt 0 0
vt 0 0
vt 0 0
vt 0 0
vt 0 0
vt 0 0
vt 0 0
vt 0 0
vt 0 0
vt 0 0
vt 0 0
vt 0 0
vt 0 0
vt 0 0
vt 0 0
vt 0 0
vt 0 0
vt 0.667257 0.358398
vt 0 0
vt 0 0
vt 0 0
vt 0 0
vt 0.958173 0.938954
vt 0 0
vt 0.100334 0.773965
vt 0 0
vt 0 0
vt 0 0
vt 0 0
vt 0 0
vt 0 0
vt 0 0
vt 0 0
vt 0 0
vt 0 0
vt 0 0
vt 0 0
vt 0 0
vt 0 0
vt 0 0
vt 0 0
vt 0 0
vt 0.915743 0.973775
vt 0 0
vt 0 0
vt 0 0
vt 0 0
vt 0 0
vt 0 0
vt 0 0
vt 0 0
vt 0 0
vt 0 0
vt 0 0
vt 0 0
vt 0 0
vt 0 0
vt 0 0
vt 0 0
vt 0.637807 0.167193
vt 0 0
vt 0 0
vt 0 0
vt 0 0
vt 0 0
vt 0 0
vt 0 0
vt 0 0
vt 0 0
vt 0 0
vt 0 0
vt 0 0
vt 0 0
vt 0 0
vt 0 0
vt 0 0
vt 0 0
vt 0 0
vt 0 0
vt 0 0
vt 0 0
vt 0 0
vt 0.808594 0.984328
vt 0 0
vt 0 0
vt 0 0
vt 0.499971 0.300018
vt 0 0
vt 0 0
vt 0 0
vt 0 0
vt 0 0
vt 0 0
vt 0 0
vt 0 0
vt 0 0
vt 0 0
vt 0 0
vt 0 0
vt 0.431574 0.148233
vt 0 0
vt 0 0
vt 0.760187 0.958453
vt 0 0
vt 0 0
vt 0 0
vt 0 0
vt 0 0
vt 0 0
vt 0 0
vt 0 0
vt 0 0
vt 0 0
vt 0.295002 0.985773
vt 0.324669 0.783142
vt 0 0
vt 0 0
vt 0 0
vt 0 0
vt 0 0
vt 0 0
vt 0 0
vt 0 0
vt 0.725366 0.916024
vt 0 0
vt 0 0
vt 0 0
vt 0 0
vt 0 0
vt 0 0
vt 0 0
vt 0 0
vt 0 0
vt 0 0
vt 0 0
vt 0 0
vt 0.873165 0.84251
vt 0.830257 0.865446
vt 0.042487 0.985774
vt 0.012821 0.783142
vt 0.842229 0.825975
vt 0.212552 0.650314
vt 0.472107 0.79125
vt 0.623404 0.777362
vt 0.547031 0.022961
vt 0.80855 0.160365
vt 0.880582 0.293119
vt 0.397618 0.038889
vt 0.266048 0.110693
vt 0.143987 0.295315
vt 0.725365 0.783396
vt 0.852598 0.587886
vn -0.679996 0.730319 -0.0335844
vn 0.0265716 -0.997947 0.0041505
vn -0.835733 0.534896 -0.109605
vn -0.693586 0.565435 -0.444684
vn 0.0231934 -0.997883 0.0176448
vn -0.491891 0.69604 -0.521133
vn -0.145042 0.962905 -0.225274
vn 0.00999048 -0.997837 0.0289745
vn -0.301633 0.486539 -0.819424
vn -0.90244 0.0077295 -0.426817
vn 0.0158517 -0.998587 0.0177823
vn 0.553529 0.0629022 -0.828414
vn -0.0233055 0.705686 -0.706939
vn 0.771926 -0.0193052 -0.634048
vn -0.880385 -0.010296 -0.470575
vn -0.0109214 -0.998436 0.0275618
vn 0.262259 0.586191 -0.765989
vn 0.345654 0.846069 -0.405055
vn -0.0237179 -0.997853 0.0186834
vn 0.616564 0.579476 -0.532112
vn 0.693175 0.71309 -0.100451
vn 0.771926 -0.0193052 -0.634048
vn -0.0209428 -0.998225 0.00464964
vn 0.375543 0.18329 0.906641
vn -0.0305241 -0.997842 0.000220797
vn 0.797645 0.599444 -0.0663177
vn 0.364285 0.87979 0.299657
vn -0.0183968 -0.998507 -0.0200229
vn 0.598717 0.711037 0.366952
vn 0.917707 -0.0996776 -0.380128
vn 0.143465 0.109879 0.98176
vn -0.00714979 -0.997948 -0.0259767
vn 0.262259 0.586189 0.76599
vn -0.0233054 0.705685 0.70694
vn 0.00857179 -0.99788 -0.0281077
vn -0.264843 0.512706 0.816013
vn -0.2059 0.939989 0.269525
vn -0.51013 0.688228 0.51502
vn 0.0216146 -0.997845 -0.0215432
vn -0.600847 0.524038 0.600847
vn -0.922011 0.0257249 -0.38191
vn 0.00940122 -0.998684 -0.0175766
vn 0.143465 0.109879 0.98176
vn -0.90244 0.0077295 -0.426817
vn -0.0978098 0.0293712 0.993073
vn 0.0303804 -0.998407 -0.00139931
vn -0.787551 0.541745 0.291022
g mush_a
usemtl None
f 90/90/14 159/159/22 210/210/30
f 159/322/23 128/128/19 168/168/25
f 300/300/44 299/299/41 79/79/10
f 159/322/23 208/208/28 299/323/42
f 210/210/31 299/324/43 300/325/45
f 79/326/11 68/68/8 108/108/16
f 90/90/14 79/79/12 159/159/22
f 300/300/44 79/79/10 90/90/15
f 299/323/42 309/309/46 79/326/11
f 68/327/9 85/85/13 108/328/17
f 210/210/31 159/159/24 299/324/43
f 79/326/11 309/309/46 18/18/2
f 79/326/11 108/108/16 159/322/23
f 145/145/21 128/329/20 123/123/18
f 268/268/35 299/323/42 228/228/32
f 268/330/36 228/331/33 245/245/34
f 288/288/39 299/323/42 268/268/35
f 145/145/21 203/203/27 208/332/29
f 208/208/28 159/322/23 168/168/25
f 288/333/40 268/330/36 285/285/38
f 309/334/47 5/5/1 18/335/3
f 38/38/4 45/45/6 68/327/9
f 68/68/8 79/326/11 38/336/5
f 5/5/1 309/334/47 285/285/38
f 85/85/13 123/123/18 108/328/17
f 203/203/27 145/145/21 123/123/18
f 203/203/27 123/123/18 52/52/7
f 108/328/17 123/123/18 128/329/20
f 128/128/19 159/322/23 108/108/16
f 208/332/29 203/203/27 228/331/33
f 228/228/32 299/323/42 208/208/28
f 203/203/27 52/52/7 272/272/37
f 203/203/27 245/245/34 228/331/33
f 45/45/6 38/38/4 5/5/1
f 52/52/7 5/5/1 272/272/37
f 285/285/38 268/330/36 245/245/34
f 272/272/37 245/245/34 203/203/27
f 272/272/37 5/5/1 285/285/38
f 272/272/37 285/285/38 245/245/34
f 52/52/7 123/123/18 85/85/13
f 45/45/6 85/85/13 68/327/9
f 52/52/7 85/85/13 45/45/6
f 52/52/7 45/45/6 5/5/1
f 18/335/3 5/5/1 38/38/4
f 38/336/5 79/326/11 18/18/2
f 168/337/26 128/329/20 145/145/21
f 168/337/26 145/145/21 208/332/29
f 288/333/40 285/285/38 309/334/47
f 309/309/46 299/323/42 288/288/39
